<svg xmlns="http://www.w3.org/2000/svg" viewBox="0 0 268.78 210"><defs><style>.cls-1{fill:#fff;}</style></defs><g id="Capa_2" data-name="Capa 2"><g id="Capa_2-2" data-name="Capa 2"><path class="cls-1" d="M204.93,169.15s-25,11.3-73.37,11.3c-38.77,0-68.72-11.3-68.72-11.3s27.93,18.29,69.58,17.49C189.51,185.54,204.93,169.15,204.93,169.15Z"/><path class="cls-1" d="M96.68,59.51c14.57-5,29.66-5.84,41.49-6.16,34.32-.93,63,20.61,67.82,27.09,6.2,8.27,11.84,27.29,13,43.67a178.09,178.09,0,0,1-3,45s10.67-19.59,7.61-54.49c-2.4-27.32-18.68-42.89-18.68-42.89S177,44.19,137.83,44.19c-53.11,0-79.63,33.66-79.63,33.66a74.88,74.88,0,0,0-13.7,38.37c-2.31,33.54,7.86,52.93,7.86,52.93-3.2-20.53-8.76-51.71,9.84-88.09C64.7,76.18,81.07,64.84,96.68,59.51Z"/><path class="cls-1" d="M268.45,106c-2.14-19.42-20.74-22.08-22.16-22.25-3.41-9.52-7.7-18.73-11.95-25.27a150,150,0,0,0-20.62-25.39c-8.13-7.86-17.84-14.52-24.14-18.56C177.23,6.57,149.08-.92,131.11.09,108.7,1.35,82.74,6.25,51,36.54,40.05,46.94,29.47,64.09,22.41,83.73,20.5,84,2.44,86.85.33,106c-2.69,24.41,11.8,27.59,14.15,27.94a104,104,0,0,0,1.76,17.17c2.73,13.79,10,34.73,16.64,46.12,1.44,2.49,6,11.34,8.63,12.55,1.35.62,69-.11,69-.11l-66-8.49a177.74,177.74,0,0,1-14.39-26.28c-5.79-13.26-8.93-29.53-9.9-38.31a111.77,111.77,0,0,1,2.64-40.8c3.67-15,11.86-30.62,14.85-34.5,9.26-12,25-21.91,34-25.89a153,153,0,0,1,65.52-13.55c46.26.76,80.62,21.49,93.83,39.6,6.1,8.34,13.95,27.25,16.48,42.29a120.61,120.61,0,0,1-.49,42.75c-1.12,6-3.53,17.41-8.11,27.94a204,204,0,0,1-14.74,27.15l-66.06,8.09h63s6.07.13,6.38,0c1.44-.61,9.17-13.4,9.17-13.4s8-17,10.51-24.08a119,119,0,0,0,7-38.22C255.7,133.74,271.23,131.17,268.45,106ZM17.39,100.65a144.08,144.08,0,0,0-2.92,33.1c-1.67-1.12-9.16-7.11-7.89-23.93C8.24,87.87,20.78,84.14,22.4,83.75A154.68,154.68,0,0,0,17.39,100.65Zm236.73,33.22A189,189,0,0,0,252.86,110c-.83-7.66-3.29-17.11-6.56-26.25,1.22.28,14.21,3.73,15.9,26.09C263.53,127.41,255.26,133.16,254.12,133.87Z"/></g></g></svg>